<svg width="9" height="8" viewBox="0 0 9 8" fill="none" xmlns="http://www.w3.org/2000/svg">
<path d="M5.53694 4.4H5.93694V4.8H6.33694V5.2H6.73694V5.6H7.13694V6H7.53694V6.4H7.93694V6.8H8.33694V7.2H8.73694V7.6H8.33694V8H7.93694V7.6H7.53694V7.2H7.13694V6.8H6.73694V6.4H6.33694V6H5.93694V5.6H5.53694V5.2H5.13694V4.8H4.33694V5.2H3.93694V5.6H3.53694V6H3.13694V6.4H2.73694V6.8H2.33694V7.2H1.93694V7.6H1.53694V8H1.13694V7.6H0.736938V7.2H1.13694V6.8H1.53694V6.4H1.93694V6H2.33694V5.6H2.73694V5.2H3.13694V4.8H3.53694V4.4H3.93694V3.6H3.53694V3.2H3.13694V2.8H2.73694V2.4H2.33694V2H1.93694V1.6H1.53694V1.2H1.13694V0.8H0.736938V0.4H1.13694V0H1.53694V0.4H1.93694V0.8H2.33694V1.2H2.73694V1.6H3.13694V2H3.53694V2.4H3.93694V2.8H4.33694V3.2H5.13694V2.8H5.53694V2.4H5.93694V2H6.33694V1.6H6.73694V1.2H7.13694V0.8H7.53694V0.4H7.93694V0H8.33694V0.4H8.73694V0.8H8.33694V1.2H7.93694V1.6H7.53694V2H7.13694V2.4H6.73694V2.8H6.33694V3.2H5.93694V3.6H5.53694V4.4Z" fill="#E40707" fill-opacity="0.95"/>
</svg>
